<svg xmlns="http://www.w3.org/2000/svg" viewBox="0 0 500 150" fill="none">
  <defs>
    <linearGradient id="neptuGrad" x1="0%" y1="0%" x2="100%" y2="100%">
      <stop offset="0%" style="stop-color:#9955FF" />
      <stop offset="100%" style="stop-color:#7C3AED" />
    </linearGradient>
  </defs>

  <!-- Logo Icon -->
  <g transform="translate(80, 75)">
     <!-- 8 Petals / Network Connections -->
    <g stroke="url(#neptuGrad)" stroke-width="2.5" fill="none">
        <path d="M0 -10 C 10 -30, 20 -40, 0 -55 C -20 -40, -10 -30, 0 -10" />
        <path d="M0 -10 C 10 -30, 20 -40, 0 -55 C -20 -40, -10 -30, 0 -10" transform="rotate(45)" />
        <path d="M0 -10 C 10 -30, 20 -40, 0 -55 C -20 -40, -10 -30, 0 -10" transform="rotate(90)" />
        <path d="M0 -10 C 10 -30, 20 -40, 0 -55 C -20 -40, -10 -30, 0 -10" transform="rotate(135)" />
        <path d="M0 -10 C 10 -30, 20 -40, 0 -55 C -20 -40, -10 -30, 0 -10" transform="rotate(180)" />
        <path d="M0 -10 C 10 -30, 20 -40, 0 -55 C -20 -40, -10 -30, 0 -10" transform="rotate(225)" />
        <path d="M0 -10 C 10 -30, 20 -40, 0 -55 C -20 -40, -10 -30, 0 -10" transform="rotate(270)" />
        <path d="M0 -10 C 10 -30, 20 -40, 0 -55 C -20 -40, -10 -30, 0 -10" transform="rotate(315)" />
    </g>

    <!-- Nodes at tips -->
    <g fill="#FFFFFF">
        <circle cx="0" cy="-55" r="3" />
        <circle cx="39" cy="-39" r="3" />
        <circle cx="55" cy="0" r="3" />
        <circle cx="39" cy="39" r="3" />
        <circle cx="0" cy="55" r="3" />
        <circle cx="-39" cy="39" r="3" />
        <circle cx="-55" cy="0" r="3" />
        <circle cx="-39" cy="-39" r="3" />
    </g>

    <!-- Center Core -->
    <circle cx="0" cy="0" r="8" fill="url(#neptuGrad)" />
  </g>

  <!-- Logotype -->
  <text x="160" y="90" font-family="Arial, Helvetica, sans-serif" font-weight="bold" font-size="64" letter-spacing="4" fill="#E0E0E0">NEPTU</text>
  
  <!-- Tagline -->
  <text x="165" y="118" font-family="Arial, Helvetica, sans-serif" font-weight="normal" font-size="14" letter-spacing="1.5" fill="#AAAAAA">YOUR BALINESE SOUL, ON-CHAIN</text>
</svg>
